# xmcd
#
# Track frame offsets:
#	150
#	17088
#	37662
#	49925
#	67296
#	81714
#	99447
#	115141
#	133031
#	147758
#	163851
#	179243
#	190624
#	204066
#	222609
#	238906
#	254452
#	269346
#
# Disc length: 3810 seconds
#
# Revision: 1
# Processed by: cddbd v1.5.2PL0 Copyright (c) Steve Scherf et al.
# Submitted via: audiograbber 1.83.01
#
DISCID=150ee012
DTITLE=Various Artist - CDXMAS 1039
DYEAR=2018
DGENRE=Country Christmas
TTITLE0=Mallary Hope - Christmas Is All About You
TTITLE1=Dylan Scott - The Christmas Song
TTITLE2=Dylan Scott - Winter Wonderland
TTITLE3=Vince Vance and  The Valiants - All I Want For Christmas Is You
TTITLE4=Mike Aiken - Almost Christmas
TTITLE5=Joseph James - Christmas In My Hometown
TTITLE6=Sherry Lynn - Christmas On My Mind
TTITLE7=Vince Vance and The Valiants - Christmas State Of Mind
TTITLE8=Bubba T ft. Natalie Rose - Frosty The Snowman
TTITLE9=Jayne Carter - Hallelujah Emmanuel
TTITLE10=Lucas Hoge - Hey Christmas
TTITLE11=Jes Marie - Jingle Bell Rock
TTITLE12=Lefroy - Macaroni Necklace
TTITLE13=Phil Vassar and Lonestar - Not So Silent Night
TTITLE14=Carly Burruss - The Sweetest Time Of All
TTITLE15=Greg Sterling - That Better Be Santa Claus
TTITLE16=TJ Sparks - What Would Christmas Be
TTITLE17=Jeff Bates - When Christmas Gets A Hold Of Me
EXTD=
EXTT0=
EXTT1=
EXTT2=
EXTT3=
EXTT4=
EXTT5=
EXTT6=
EXTT7=
EXTT8=
EXTT9=
EXTT10=
EXTT11=
EXTT12=
EXTT13=
EXTT14=
EXTT15=
EXTT16=
EXTT17=
PLAYORDER=
